<svg width="28" height="28" viewBox="0 0 28 28" fill="none" xmlns="http://www.w3.org/2000/svg">
<path d="M24.72 0H3.28016C1.47208 0 0 1.28609 0 2.8798V21.7801C0 23.3738 1.47197 24.6599 3.28005 24.6599H21.424L20.576 22.0737L22.624 23.7372L24.5599 25.3029L28 27.959V2.8798C28 1.28609 26.528 0 24.72 0ZM18.544 18.2573C18.544 18.2573 17.968 17.6561 17.488 17.1249C19.584 16.6076 20.384 15.4614 20.384 15.4614C19.728 15.8388 19.104 16.1045 18.544 16.2861C17.744 16.5797 16.976 16.7753 16.224 16.8872C14.688 17.1389 13.28 17.069 12.08 16.8733C11.168 16.7194 10.384 16.4958 9.72803 16.2722C9.35998 16.1463 8.96 15.9926 8.55991 15.7969C8.512 15.7689 8.46398 15.7549 8.41597 15.7269C8.38403 15.713 8.36795 15.699 8.35198 15.6851C8.064 15.5453 7.90398 15.4474 7.90398 15.4474C7.90398 15.4474 8.67202 16.5658 10.704 17.0969C10.224 17.6282 9.632 18.2572 9.632 18.2572C6.09591 18.1594 4.75202 16.1324 4.75202 16.1324C4.75202 11.631 7.056 7.98229 7.056 7.98229C9.35998 6.47249 11.552 6.51444 11.552 6.51444L11.712 6.68225C8.83203 7.40901 7.504 8.51353 7.504 8.51353C7.504 8.51353 7.85597 8.34582 8.44791 8.10815C10.16 7.45106 11.52 7.26939 12.08 7.22744C12.176 7.21339 12.256 7.19944 12.352 7.19944C13.4242 7.0774 14.5093 7.06803 15.5841 7.17154C17.104 7.3253 18.736 7.71672 20.4 8.51353C20.4 8.51353 19.136 7.46511 16.416 6.73816L16.64 6.51454C16.64 6.51454 18.832 6.47249 21.136 7.98239C21.136 7.98239 23.44 11.631 23.44 16.1324C23.44 16.1324 22.08 18.1594 18.544 18.2572V18.2573ZM11.104 11.7288C10.192 11.7288 9.47209 12.4278 9.47209 13.2805C9.47209 14.1333 10.208 14.8323 11.104 14.8323C12.016 14.8323 12.736 14.1333 12.736 13.2805C12.752 12.4278 12.016 11.7288 11.1041 11.7288H11.104ZM16.944 11.7288C16.032 11.7288 15.312 12.4278 15.312 13.2805C15.312 14.1333 16.048 14.8323 16.944 14.8323C17.856 14.8323 18.5759 14.1333 18.5759 13.2805C18.5759 12.4278 17.856 11.7288 16.944 11.7288Z" fill="#005BBC"/>
</svg>
