<svg width="28" height="28" viewBox="0 0 28 28" fill="none" xmlns="http://www.w3.org/2000/svg">
<g clip-path="url(#clip0_517_1399)">
<path fill-rule="evenodd" clip-rule="evenodd" d="M14.0001 0.331055C6.16711 0.331055 -0.185181 6.68168 -0.185181 14.5164C-0.185181 20.7836 3.87919 26.101 9.51564 27.9765C10.2245 28.1078 10.4849 27.6687 10.4849 27.294C10.4849 26.9559 10.4716 25.8383 10.4655 24.6533C6.51887 25.5112 5.68632 22.9795 5.68632 22.9795C5.04116 21.3398 4.11125 20.9037 4.11125 20.9037C2.82426 20.0234 4.20795 20.0414 4.20795 20.0414C5.63264 20.1415 6.38284 21.5035 6.38284 21.5035C7.64783 23.672 9.70135 23.0449 10.5106 22.6825C10.6383 21.7656 11.0057 21.1394 11.4115 20.7853C8.26065 20.4269 4.94847 19.2102 4.94847 13.7748C4.94847 12.2261 5.50261 10.9608 6.41018 9.96719C6.26281 9.60977 5.77735 8.16673 6.54754 6.2129C6.54754 6.2129 7.73852 5.83213 10.4485 7.6676C11.5805 7.35319 12.7941 7.19548 13.9995 7.19015C15.2051 7.19582 16.4194 7.35352 17.553 7.6676C20.2604 5.83247 21.45 6.21323 21.45 6.21323C22.2222 8.16707 21.7368 9.60977 21.5894 9.96753C22.499 10.9604 23.0491 12.2261 23.0491 13.7752C23.0491 19.2232 19.7306 20.4229 16.5718 20.7736C17.0806 21.2137 17.534 22.0773 17.534 23.401C17.534 25.2988 17.518 26.8262 17.518 27.2933C17.518 27.6701 17.7734 28.1128 18.4923 27.9735C24.1257 26.0957 28.1848 20.7803 28.1848 14.515C28.1854 6.68202 21.8345 0.331055 14.0001 0.331055Z" fill="#005BBC"/>
<path d="M5.18787 20.6974C5.1562 20.7681 5.04517 20.7891 4.94448 20.7407C4.84112 20.6941 4.78377 20.5984 4.81711 20.5274C4.84712 20.4553 4.95848 20.435 5.06151 20.4833C5.16487 20.53 5.22355 20.6267 5.1882 20.6974H5.18787ZM5.76235 21.3389C5.69467 21.4012 5.5623 21.3722 5.47228 21.2729C5.37959 21.1739 5.36225 21.0415 5.43093 20.9781C5.50028 20.9155 5.62865 20.9448 5.72101 21.0438C5.81436 21.1439 5.8327 21.2749 5.76202 21.3386L5.76235 21.3389ZM6.3215 22.1551C6.23481 22.2158 6.09244 22.1591 6.00475 22.0327C5.91739 21.907 5.91739 21.756 6.00641 21.695C6.09444 21.6343 6.23447 21.689 6.32316 21.814C6.41052 21.9424 6.41052 22.0941 6.3215 22.1554V22.1551ZM7.08769 22.9446C7.01001 23.0303 6.8443 23.0073 6.72326 22.8903C6.59923 22.7759 6.56489 22.6136 6.64258 22.5279C6.7216 22.4422 6.88797 22.4662 7.01 22.5822C7.13337 22.6962 7.17071 22.859 7.08769 22.9443V22.9446ZM8.1453 23.4028C8.11062 23.5141 7.95125 23.5645 7.79054 23.5175C7.62983 23.4688 7.52514 23.3387 7.55714 23.2267C7.59049 23.1147 7.75119 23.0623 7.9129 23.1127C8.07294 23.1607 8.17797 23.2894 8.14496 23.4028H8.1453ZM9.30559 23.4878C9.30993 23.6045 9.17356 23.7018 9.00485 23.7038C8.83547 23.7078 8.6981 23.6132 8.6961 23.4978C8.6961 23.3798 8.82947 23.2837 8.99885 23.2811C9.16756 23.2777 9.30559 23.3718 9.30559 23.4878ZM10.3859 23.3041C10.4059 23.4181 10.2892 23.5355 10.1215 23.5665C9.95676 23.5971 9.80472 23.5265 9.78338 23.4131C9.76338 23.2964 9.88241 23.1797 10.0468 23.149C10.2145 23.1197 10.3645 23.1884 10.3859 23.3044V23.3041Z" fill="#005BBC"/>
</g>
<defs>
<clipPath id="clip0_517_1399">
<rect width="28" height="28" fill="white"/>
</clipPath>
</defs>
</svg>
