<svg width="28" height="28" viewBox="0 0 28 28" fill="none" xmlns="http://www.w3.org/2000/svg">
<path d="M27.5837 5.76049C26.6095 6.19216 25.563 6.48383 24.4629 6.61566C25.5981 5.93642 26.4473 4.86737 26.8522 3.60799C25.7857 4.24148 24.6185 4.68739 23.4012 4.92633C22.5827 4.05234 21.4985 3.47304 20.3169 3.27838C19.1354 3.08372 17.9227 3.28458 16.867 3.84979C15.8113 4.41499 14.9718 5.31292 14.4787 6.40415C13.9857 7.49538 13.8667 8.71887 14.1402 9.88466C11.9792 9.77616 9.86512 9.21447 7.93521 8.23605C6.00531 7.25763 4.3027 5.88435 2.93788 4.20533C2.47122 5.01033 2.20288 5.94366 2.20288 6.93766C2.20236 7.83249 2.42272 8.71361 2.84441 9.50285C3.2661 10.2921 3.87607 10.965 4.62022 11.462C3.75721 11.4345 2.91324 11.2013 2.15855 10.7818V10.8518C2.15846 12.1069 2.59259 13.3233 3.38726 14.2947C4.18194 15.266 5.28822 15.9326 6.51838 16.1812C5.7178 16.3978 4.87844 16.4297 4.06372 16.2745C4.4108 17.3544 5.08688 18.2987 5.99731 18.9752C6.90775 19.6518 8.00695 20.0267 9.14105 20.0475C7.21586 21.5588 4.83825 22.3786 2.39072 22.375C1.95716 22.3751 1.52397 22.3498 1.09338 22.2992C3.57777 23.8965 6.46978 24.7443 9.42338 24.741C19.4217 24.741 24.8876 16.46 24.8876 9.27799C24.8876 9.04466 24.8817 8.80899 24.8712 8.57566C25.9344 7.8068 26.8521 6.8547 27.5814 5.76399L27.5837 5.76049Z" fill="#005BBC"/>
</svg>
