<svg width="240" height="50" viewBox="0 0 240 50" fill="none" xmlns="http://www.w3.org/2000/svg">
<g clip-path="url(#clip0_899_1110)">
<path d="M76.9143 14.6888C74.9124 14.6888 73.2771 16.3593 73.2771 18.4043V35.6567C73.2771 37.4712 72.6287 39.0553 71.3882 40.3226C70.1193 41.6186 68.597 42.2522 66.8206 42.2522C65.1008 42.2522 63.6066 41.6474 62.3659 40.4378C61.1254 39.2281 60.477 37.7303 60.4206 36.031V18.4331C60.4206 17.5402 60.1386 16.7338 59.5465 16.0137C59.4056 15.8409 59.2646 15.6969 59.0954 15.5529C58.3905 14.9481 57.6012 14.66 56.7271 14.66C54.7254 14.66 53.0901 16.3306 53.0901 18.3755V36.0598C53.1465 39.8041 54.5279 43.0588 57.2064 45.7084C59.8849 48.3583 63.1272 49.7119 66.8206 49.7119C69.33 49.7119 71.6418 49.0783 73.7283 47.811C73.9819 48.3295 74.3767 48.7616 74.856 49.1071C75.4763 49.5391 76.2375 49.7697 77.0552 49.7697C79.0007 49.7697 80.5512 48.1567 80.5512 46.1981V18.4331C80.5512 16.3593 78.9159 14.6888 76.9143 14.6888Z" fill="#0E3FBE"/>
<path d="M103.869 18.2892C103.079 16.2442 101.162 14.9193 99.0192 14.9193C96.8766 14.9193 94.9593 16.2442 94.1699 18.2892L83.5688 45.4206C83.1742 46.4575 83.2869 47.6095 83.9072 48.5311C84.5274 49.4528 85.5424 50.0001 86.6138 50.0001C87.375 50.0001 88.08 49.7985 88.6721 49.3664C89.2923 48.9344 89.7435 48.3871 90.0535 47.6671L91.8297 43.0588H106.237L108.013 47.6671C108.323 48.3871 108.775 48.9344 109.367 49.3664C109.987 49.7985 110.664 50.0001 111.425 50.0001C112.524 50.0001 113.511 49.4528 114.131 48.5311C114.752 47.6095 114.864 46.4575 114.47 45.4206L103.869 18.2892ZM103.277 35.6278H94.7338L98.991 24.6544L103.277 35.6278Z" fill="#0E3FBE"/>
<path d="M121.94 14.8904C119.938 14.8904 118.275 16.5609 118.275 18.6346V46.2269C118.275 48.2717 119.91 49.971 121.94 49.971C123.97 49.971 125.605 48.3005 125.605 46.2269V18.6346C125.605 17.6265 125.239 16.7049 124.534 15.9848C123.829 15.2648 122.927 14.8904 121.94 14.8904Z" fill="#0E3FBE"/>
<path d="M171.055 23.7037C169.532 21.0539 167.447 18.9225 164.824 17.3672C162.203 15.812 159.298 15.0343 156.225 15.0343H149.628C147.541 15.0343 145.85 16.7624 145.85 18.8937V46.2267C145.85 47.2348 146.216 48.1277 146.921 48.8477C147.626 49.5677 148.5 49.9422 149.543 49.9422H156.254C159.552 49.9422 162.654 49.0493 165.417 47.2636C167.616 45.8524 169.477 43.9225 170.83 41.7048C172.522 38.9112 173.396 35.8005 173.396 32.4594C173.338 29.3201 172.577 26.3822 171.055 23.7037ZM166.037 32.517C166.037 35.282 165.078 37.6438 163.161 39.6024C161.244 41.5608 158.904 42.5401 156.225 42.5401H153.152V22.4651H156.225C158.932 22.4651 161.244 23.4444 163.161 25.4031C165.05 27.3903 166.037 29.7808 166.037 32.517Z" fill="#0E3FBE"/>
<path d="M193.75 18.2892C192.962 16.2442 191.045 14.9193 188.901 14.9193C186.76 14.9193 184.842 16.2442 184.052 18.2892L173.478 45.3918C173.085 46.4287 173.197 47.5807 173.818 48.5023C174.437 49.424 175.424 49.9713 176.525 49.9713C177.286 49.9713 177.99 49.7695 178.582 49.3376C179.203 48.9056 179.654 48.3583 179.965 47.6383L181.74 43.03H196.147L197.924 47.6383C198.235 48.3583 198.685 48.9056 199.278 49.3376C199.897 49.7695 200.574 49.9713 201.335 49.9713C202.435 49.9713 203.421 49.424 204.042 48.5023C204.662 47.5807 204.775 46.4287 204.38 45.3918L193.75 18.2892ZM193.16 35.6278H184.616L188.873 24.6544L193.16 35.6278Z" fill="#0E3FBE"/>
<path d="M237.733 23.7616C236.211 21.1118 234.125 18.9804 231.504 17.4251C228.881 15.8698 226.005 15.0922 222.903 15.0922C219.831 15.0922 216.927 15.8698 214.304 17.4251C211.683 18.9804 209.597 21.1118 208.074 23.7616C206.552 26.4113 205.789 29.378 205.789 32.5461C205.789 34.9078 206.241 37.212 207.143 39.3433C208.046 41.4747 209.257 43.3468 210.78 44.9021C212.302 46.4575 214.135 47.6959 216.25 48.6176C218.365 49.5392 220.592 50 222.876 50C225.976 50 228.881 49.2225 231.475 47.6671C234.096 46.1118 236.184 43.9804 237.706 41.3019C239.229 38.6233 239.99 35.6856 239.99 32.5173C240.017 29.349 239.256 26.4113 237.733 23.7616ZM232.716 32.5173C232.716 35.2823 231.757 37.644 229.84 39.6026C227.922 41.5611 225.581 42.5404 222.903 42.5404C220.197 42.5404 217.857 41.5611 215.939 39.6314C214.051 37.6728 213.092 35.2823 213.092 32.5173C213.092 29.7523 214.051 27.3906 215.968 25.4321C217.885 23.4735 220.224 22.4942 222.903 22.4942C225.61 22.4942 227.922 23.4735 229.84 25.4321C231.728 27.3906 232.716 29.7811 232.716 32.5173Z" fill="#0E3FBE"/>
<path d="M44.9134 49.8848H24.4162C10.9112 49.8848 0 38.7098 0 24.9424C0 18.0588 2.73485 11.8088 7.16135 7.28688C11.5878 2.76498 17.6778 0 24.4162 0C31.1546 0 37.2727 2.79379 41.6711 7.28688C43.8984 9.56224 45.6748 12.2408 46.9153 15.2362C48.1558 18.2028 48.8324 21.4862 48.8324 24.9424C48.8324 30.4148 47.1126 35.484 44.1522 39.6026C43.5038 40.5243 42.7706 41.4171 41.9813 42.2236L34.8763 34.9655C37.3011 32.3445 38.7671 28.8307 38.7671 24.9424C38.7671 20.8814 37.16 17.2235 34.5662 14.5738C31.9723 11.924 28.3634 10.2823 24.4162 10.2823C20.469 10.2823 16.8602 11.924 14.2663 14.5738C11.6724 17.2235 10.0653 20.8814 10.0653 24.9424C10.0653 33.0359 16.4937 39.6026 24.4162 39.6026V28.9459L44.9134 49.8848Z" fill="url(#paint0_linear_899_1110)"/>
</g>
<defs>
<linearGradient id="paint0_linear_899_1110" x1="17.7624" y1="54.0036" x2="52.6281" y2="0.675136" gradientUnits="userSpaceOnUse">
<stop stop-color="#74EAE8"/>
<stop offset="1" stop-color="#0394E8"/>
</linearGradient>
<clipPath id="clip0_899_1110">
<rect width="240" height="50" fill="white"/>
</clipPath>
</defs>
</svg>
