<svg width="149" height="30" viewBox="0 0 149 30" fill="none" xmlns="http://www.w3.org/2000/svg">
<path d="M47.7509 8.81318C46.5081 8.81318 45.4929 9.81549 45.4929 11.0425V21.3939C45.4929 22.4826 45.0903 23.4331 44.3202 24.1934C43.5324 24.971 42.5873 25.3512 41.4844 25.3512C40.4167 25.3512 39.4891 24.9883 38.7188 24.2625C37.9487 23.5367 37.5461 22.6381 37.5111 21.6185V11.0597C37.5111 10.524 37.336 10.0401 36.9684 9.60811C36.881 9.50443 36.7935 9.41803 36.6884 9.33162C36.2508 8.96871 35.7607 8.7959 35.2181 8.7959C33.9753 8.7959 32.9601 9.79821 32.9601 11.0252V21.6358C32.9951 23.8824 33.8528 25.8352 35.5156 27.4249C37.1785 29.0148 39.1915 29.827 41.4844 29.827C43.0423 29.827 44.4776 29.4468 45.773 28.6865C45.9304 28.9976 46.1755 29.2568 46.4731 29.4641C46.8582 29.7234 47.3308 29.8617 47.8384 29.8617C49.0462 29.8617 50.0089 28.8939 50.0089 27.7187V11.0597C50.0089 9.81549 48.9936 8.81318 47.7509 8.81318Z" fill="#0E3FBE"/>
<path d="M64.4851 10.9731C63.9951 9.74611 62.8048 8.95117 61.4744 8.95117C60.1442 8.95117 58.9539 9.74611 58.4638 10.9731L51.8823 27.2519C51.6373 27.8741 51.7073 28.5653 52.0924 29.1182C52.4774 29.6713 53.1076 29.9996 53.7728 29.9996C54.2453 29.9996 54.683 29.8787 55.0506 29.6194C55.4356 29.3602 55.7157 29.0319 55.9082 28.5999L57.0109 25.8349H65.9555L67.0583 28.5999C67.2508 29.0319 67.5308 29.3602 67.8984 29.6194C68.2835 29.8787 68.7037 29.9996 69.1762 29.9996C69.8589 29.9996 70.4715 29.6713 70.8566 29.1182C71.2417 28.5653 71.3117 27.8741 71.0666 27.2519L64.4851 10.9731ZM64.1176 21.3763H58.8139L61.4569 14.7922L64.1176 21.3763Z" fill="#0E3FBE"/>
<path d="M75.7044 8.93457C74.4615 8.93457 73.4288 9.93687 73.4288 11.1811V27.7365C73.4288 28.9634 74.444 29.983 75.7044 29.983C76.9647 29.983 77.9799 28.9806 77.9799 27.7365V11.1811C77.9799 10.5763 77.7523 10.0233 77.3147 9.59125C76.8771 9.15922 76.317 8.93457 75.7044 8.93457Z" fill="#0E3FBE"/>
<path d="M106.197 14.2222C105.251 12.6323 103.956 11.3535 102.329 10.4202C100.701 9.4871 98.8978 9.02051 96.9899 9.02051H92.8939C91.5986 9.02051 90.5484 10.0574 90.5484 11.3362V27.7359C90.5484 28.3408 90.776 28.8766 91.2136 29.3086C91.6511 29.7406 92.1938 29.9652 92.8415 29.9652H97.0074C99.0553 29.9652 100.981 29.4295 102.696 28.3581C104.061 27.5114 105.217 26.3535 106.057 25.0228C107.107 23.3466 107.65 21.4802 107.65 19.4756C107.614 17.592 107.142 15.8292 106.197 14.2222ZM103.081 19.5101C103.081 21.1691 102.486 22.5862 101.296 23.7614C100.106 24.9364 98.6528 25.524 96.9899 25.524H95.0819V13.479H96.9899C98.6703 13.479 100.106 14.0666 101.296 15.2418C102.469 16.4341 103.081 17.8684 103.081 19.5101Z" fill="#0E3FBE"/>
<path d="M120.287 10.9731C119.797 9.74611 118.607 8.95117 117.276 8.95117C115.947 8.95117 114.756 9.74611 114.266 10.9731L107.701 27.2346C107.457 27.8568 107.526 28.548 107.912 29.101C108.296 29.654 108.909 29.9823 109.593 29.9823C110.065 29.9823 110.502 29.8613 110.87 29.6022C111.255 29.3429 111.535 29.0146 111.728 28.5826L112.83 25.8176H121.775L122.878 28.5826C123.071 29.0146 123.35 29.3429 123.718 29.6022C124.103 29.8613 124.523 29.9823 124.996 29.9823C125.679 29.9823 126.291 29.654 126.676 29.101C127.061 28.548 127.131 27.8568 126.886 27.2346L120.287 10.9731ZM119.92 21.3763H114.616L117.258 14.7922L119.92 21.3763Z" fill="#0E3FBE"/>
<path d="M147.593 14.2573C146.648 12.6674 145.353 11.3886 143.725 10.4554C142.097 9.52226 140.311 9.05566 138.386 9.05566C136.479 9.05566 134.675 9.52226 133.047 10.4554C131.42 11.3886 130.125 12.6674 129.179 14.2573C128.234 15.8471 127.761 17.6272 127.761 19.528C127.761 20.9451 128.041 22.3275 128.601 23.6064C129.162 24.8852 129.914 26.0084 130.859 26.9416C131.804 27.8748 132.942 28.6179 134.255 29.1709C135.568 29.7239 136.951 30.0004 138.369 30.0004C140.294 30.0004 142.097 29.5338 143.707 28.6006C145.335 27.6674 146.631 26.3886 147.576 24.7815C148.521 23.1744 148.994 21.4117 148.994 19.5107C149.01 17.6098 148.538 15.8471 147.593 14.2573ZM144.478 19.5107C144.478 21.1697 143.882 22.5868 142.692 23.7619C141.502 24.937 140.048 25.5246 138.386 25.5246C136.706 25.5246 135.253 24.937 134.062 23.7792C132.89 22.6041 132.295 21.1697 132.295 19.5107C132.295 17.8517 132.89 16.4347 134.08 15.2596C135.27 14.0845 136.723 13.4969 138.386 13.4969C140.066 13.4969 141.502 14.0845 142.692 15.2596C143.865 16.4347 144.478 17.869 144.478 19.5107Z" fill="#0E3FBE"/>
<path d="M27.8837 29.9309H15.1584C6.77402 29.9309 0 23.2259 0 14.9654C0 10.8353 1.69789 7.08527 4.446 4.37213C7.19412 1.65899 10.975 0 15.1584 0C19.3418 0 23.1402 1.67628 25.8708 4.37213C27.2536 5.73735 28.3564 7.34449 29.1266 9.14172C29.8967 10.9217 30.3168 12.8917 30.3168 14.9654C30.3168 18.2489 29.2491 21.2904 27.4112 23.7616C27.0086 24.3146 26.5534 24.8502 26.0634 25.3342L21.6524 20.9793C23.1578 19.4067 24.0679 17.2984 24.0679 14.9654C24.0679 12.5288 23.0702 10.3341 21.4599 8.74426C19.8495 7.15439 17.6089 6.16937 15.1584 6.16937C12.7079 6.16937 10.4674 7.15439 8.85699 8.74426C7.24663 10.3341 6.2489 12.5288 6.2489 14.9654C6.2489 19.8215 10.2398 23.7616 15.1584 23.7616V17.3675L27.8837 29.9309Z" fill="url(#paint0_linear_899_1118)"/>
<defs>
<linearGradient id="paint0_linear_899_1118" x1="11.0275" y1="32.4022" x2="31.6525" y2="-0.239923" gradientUnits="userSpaceOnUse">
<stop stop-color="#74EAE8"/>
<stop offset="1" stop-color="#0394E8"/>
</linearGradient>
</defs>
</svg>
