<svg width="153" height="32" viewBox="0 0 153 32" fill="none" xmlns="http://www.w3.org/2000/svg">
<g clip-path="url(#clip0_517_9470)">
<path d="M49.0328 9.40087C47.7567 9.40087 46.7142 10.47 46.7142 11.7788V22.8203C46.7142 23.9816 46.3008 24.9954 45.51 25.8065C44.7011 26.6359 43.7306 27.0414 42.5981 27.0414C41.5017 27.0414 40.5492 26.6543 39.7583 25.8802C38.9674 25.106 38.5541 24.1474 38.5181 23.0599V11.7972C38.5181 11.2257 38.3383 10.7096 37.9609 10.2488C37.871 10.1382 37.7812 10.046 37.6733 9.95386C37.224 9.56676 36.7208 9.38243 36.1635 9.38243C34.8874 9.38243 33.845 10.4516 33.845 11.7603V23.0783C33.8809 25.4747 34.7616 27.5576 36.4691 29.2534C38.1766 30.9493 40.2436 31.8156 42.5981 31.8156C44.1978 31.8156 45.6717 31.4101 47.0018 30.5991C47.1635 30.9309 47.4152 31.2074 47.7207 31.4285C48.1161 31.7051 48.6014 31.8526 49.1227 31.8526C50.3629 31.8526 51.3514 30.8203 51.3514 29.5668V11.7972C51.3514 10.47 50.3089 9.40087 49.0328 9.40087Z" fill="#F4F7FD"/>
<path d="M66.2163 11.705C65.7131 10.3963 64.4908 9.54832 63.1248 9.54832C61.7589 9.54832 60.5366 10.3963 60.0333 11.705L53.2751 29.0691C53.0235 29.7327 53.0954 30.4701 53.4908 31.0599C53.8862 31.6498 54.5333 32 55.2163 32C55.7016 32 56.151 31.871 56.5284 31.5945C56.9239 31.318 57.2115 30.9677 57.4091 30.5069L58.5414 27.5576H67.7262L68.8585 30.5069C69.0562 30.9677 69.3438 31.318 69.7212 31.5945C70.1166 31.871 70.5481 32 71.0333 32C71.7343 32 72.3634 31.6498 72.7588 31.0599C73.1542 30.4701 73.2261 29.7327 72.9744 29.0691L66.2163 11.705ZM65.8388 22.8018H60.3928L63.1068 15.7788L65.8388 22.8018Z" fill="#F4F7FD"/>
<path d="M77.7367 9.52985C76.4605 9.52985 75.4001 10.599 75.4001 11.9262V29.5852C75.4001 30.8939 76.4425 31.9815 77.7367 31.9815C79.0308 31.9815 80.0733 30.9123 80.0733 29.5852V11.9262C80.0733 11.281 79.8396 10.6911 79.3903 10.2303C78.9409 9.76948 78.3658 9.52985 77.7367 9.52985Z" fill="#F4F7FD"/>
<path d="M109.047 15.1704C108.077 13.4745 106.747 12.1105 105.076 11.115C103.404 10.1197 101.553 9.62198 99.5936 9.62198H95.3878C94.0577 9.62198 92.9792 10.728 92.9792 12.092V29.5851C92.9792 30.2303 93.2129 30.8018 93.6623 31.2626C94.1116 31.7234 94.6688 31.963 95.3339 31.963H99.6116C101.715 31.963 103.692 31.3916 105.453 30.2487C106.855 29.3455 108.041 28.1105 108.904 26.6911C109.982 24.9032 110.54 22.9123 110.54 20.7741C110.503 18.7649 110.018 16.8846 109.047 15.1704ZM105.849 20.8109C105.849 22.5805 105.237 24.092 104.015 25.3455C102.793 26.599 101.301 27.2257 99.5936 27.2257H97.6345V14.3777H99.5936C101.319 14.3777 102.793 15.0045 104.015 16.258C105.219 17.5298 105.849 19.0598 105.849 20.8109Z" fill="#F4F7FD"/>
<path d="M123.516 11.705C123.013 10.3963 121.791 9.54832 120.425 9.54832C119.059 9.54832 117.837 10.3963 117.333 11.705L110.593 29.0507C110.342 29.7143 110.413 30.4516 110.809 31.0414C111.204 31.6313 111.833 31.9816 112.535 31.9816C113.02 31.9816 113.469 31.8525 113.846 31.576C114.242 31.2995 114.529 30.9493 114.727 30.4885L115.859 27.5392H125.044L126.177 30.4885C126.375 30.9493 126.662 31.2995 127.04 31.576C127.434 31.8525 127.866 31.9816 128.351 31.9816C129.053 31.9816 129.681 31.6313 130.077 31.0414C130.472 30.4516 130.544 29.7143 130.292 29.0507L123.516 11.705ZM123.139 22.8018H117.693L120.406 15.7788L123.139 22.8018Z" fill="#F4F7FD"/>
<path d="M151.555 15.2074C150.584 13.5115 149.255 12.1474 147.584 11.152C145.912 10.1567 144.078 9.65895 142.101 9.65895C140.142 9.65895 138.291 10.1567 136.619 11.152C134.948 12.1474 133.618 13.5115 132.647 15.2074C131.677 16.9032 131.19 18.8019 131.19 20.8295C131.19 22.341 131.479 23.8156 132.053 25.1797C132.629 26.5438 133.402 27.7419 134.372 28.7373C135.343 29.7327 136.511 30.5254 137.859 31.1153C139.207 31.705 140.628 32 142.083 32C144.06 32 145.912 31.5023 147.565 30.5069C149.236 29.5115 150.567 28.1474 151.538 26.4332C152.508 24.7189 152.994 22.8387 152.994 20.811C153.011 18.7833 152.525 16.9032 151.555 15.2074ZM148.356 20.811C148.356 22.5806 147.745 24.0921 146.523 25.3457C145.3 26.5991 143.808 27.2258 142.101 27.2258C140.376 27.2258 138.884 26.5991 137.661 25.3641C136.457 24.1106 135.846 22.5806 135.846 20.811C135.846 19.0414 136.457 17.5299 137.68 16.2765C138.902 15.023 140.393 14.3963 142.101 14.3963C143.826 14.3963 145.3 15.023 146.523 16.2765C147.727 17.5299 148.356 19.0599 148.356 20.811Z" fill="#F4F7FD"/>
<path d="M28.6323 31.9263H15.5653C6.95587 31.9263 0 24.7743 0 15.9631C0 11.5576 1.74347 7.55762 4.56536 4.6636C7.38725 1.76959 11.2696 0 15.5653 0C19.8611 0 23.7614 1.78803 26.5653 4.6636C27.9852 6.11983 29.1177 7.83412 29.9085 9.75117C30.6993 11.6498 31.1307 13.7512 31.1307 15.9631C31.1307 19.4655 30.0343 22.7097 28.147 25.3457C27.7337 25.9356 27.2663 26.5069 26.7631 27.0231L22.2336 22.3779C23.7794 20.7005 24.714 18.4516 24.714 15.9631C24.714 13.3641 23.6895 11.0231 22.036 9.32721C20.3824 7.63135 18.0817 6.58066 15.5653 6.58066C13.049 6.58066 10.7484 7.63135 9.09476 9.32721C7.44117 11.0231 6.41666 13.3641 6.41666 15.9631C6.41666 21.143 10.5147 25.3457 15.5653 25.3457V18.5254L28.6323 31.9263Z" fill="url(#paint0_linear_517_9470)"/>
</g>
<defs>
<linearGradient id="paint0_linear_517_9470" x1="11.3235" y1="34.5623" x2="33.6725" y2="0.512215" gradientUnits="userSpaceOnUse">
<stop stop-color="#74EAE8"/>
<stop offset="1" stop-color="#0394E8"/>
</linearGradient>
<clipPath id="clip0_517_9470">
<rect width="153" height="32" fill="white"/>
</clipPath>
</defs>
</svg>
