<svg width="174" height="167" viewBox="0 0 174 167" fill="none" xmlns="http://www.w3.org/2000/svg">
<path d="M159.736 166.473H86.8031C38.778 166.473 0 129.145 0 83.2366C0 60.2107 9.6945 39.473 25.504 24.3131C41.1644 9.29618 62.7906 0 86.8031 0C110.816 0 132.591 9.29618 148.102 24.3131C156.007 31.8931 162.271 40.9032 166.745 50.9145C171.22 60.7827 173.606 71.7951 173.606 83.3796C173.606 101.686 167.491 118.562 156.902 132.292C154.665 135.438 151.98 138.299 149.146 141.016L124.09 116.703C132.74 107.979 137.96 96.2513 137.96 83.2366C137.96 69.6499 132.293 57.4933 123.046 48.6262C113.799 39.7591 100.823 34.3244 86.8031 34.3244C72.7834 34.3244 59.9568 39.7591 50.7097 48.6262C41.4627 57.4933 35.7951 69.6499 35.7951 83.2366C35.7951 110.267 58.6145 132.149 86.8031 132.149V96.6803L159.736 166.473Z" fill="url(#paint0_linear_1008_3682)"/>
<defs>
<linearGradient id="paint0_linear_1008_3682" x1="43.0109" y1="167.896" x2="156.289" y2="-16.685" gradientUnits="userSpaceOnUse">
<stop stop-color="#74EAE8"/>
<stop offset="1" stop-color="#0394E8"/>
</linearGradient>
</defs>
</svg>
