<svg width="667" height="76" viewBox="0 0 667 76" fill="none" xmlns="http://www.w3.org/2000/svg">
<g filter="url(#filter0_i_517_9390)">
<path d="M25.72 60.8C18.04 60.8 12.04 58.9333 7.72 55.2C3.4 51.4133 1.10667 46.0533 0.84 39.12C0.786667 37.5733 0.76 35.12 0.76 31.76C0.76 28.4 0.786667 25.9467 0.84 24.4C1.10667 17.6267 3.42667 12.4 7.8 8.72C12.2267 5.04 18.2 3.2 25.72 3.2C30.7867 3.2 35.1867 4.02666 38.92 5.68C42.7067 7.33333 45.5867 9.44 47.56 12C49.5867 14.56 50.6533 17.2 50.76 19.92C50.76 20.4 50.5733 20.8 50.2 21.12C49.88 21.44 49.48 21.6 49 21.6H37.32C36.7867 21.6 36.36 21.52 36.04 21.36C35.72 21.2 35.4533 20.9067 35.24 20.48C34.5467 18.9333 33.4533 17.6 31.96 16.48C30.4667 15.3067 28.3867 14.72 25.72 14.72C19.3733 14.72 16.04 18.08 15.72 24.8C15.6667 26.2933 15.64 28.6133 15.64 31.76C15.64 34.8533 15.6667 37.1733 15.72 38.72C16.04 45.76 19.4533 49.28 25.96 49.28C29.1067 49.28 31.6133 48.48 33.48 46.88C35.4 45.2267 36.36 42.72 36.36 39.36V37.84H28.84C28.2533 37.84 27.7733 37.6533 27.4 37.28C27.0267 36.8533 26.84 36.3467 26.84 35.76V29.84C26.84 29.2533 27.0267 28.7733 27.4 28.4C27.7733 27.9733 28.2533 27.76 28.84 27.76H49C49.5867 27.76 50.0667 27.9733 50.44 28.4C50.8133 28.7733 51 29.2533 51 29.84V38.96C51 43.4933 49.96 47.4133 47.88 50.72C45.8 53.9733 42.84 56.48 39 58.24C35.2133 59.9467 30.7867 60.8 25.72 60.8ZM71.7781 60.8C68.9515 60.8 66.3648 60.2667 64.0181 59.2C61.7248 58.08 59.9115 56.5867 58.5781 54.72C57.2981 52.8 56.6581 50.6933 56.6581 48.4C56.6581 44.72 58.1515 41.76 61.1381 39.52C64.1781 37.28 68.3381 35.7333 73.6181 34.88L83.6181 33.36V32.24C83.6181 30.2133 83.1915 28.72 82.3381 27.76C81.4848 26.8 80.0448 26.32 78.0181 26.32C76.7915 26.32 75.7781 26.5333 74.9781 26.96C74.1781 27.3867 73.3515 27.9733 72.4981 28.72C71.7515 29.36 71.1915 29.7867 70.8181 30C70.6581 30.4267 70.3648 30.64 69.9381 30.64H61.2181C60.6848 30.64 60.2315 30.48 59.8581 30.16C59.5381 29.7867 59.4048 29.36 59.4581 28.88C59.5115 27.44 60.2048 25.84 61.5381 24.08C62.9248 22.32 65.0048 20.8 67.7781 19.52C70.6048 18.24 74.0715 17.6 78.1781 17.6C84.7381 17.6 89.5915 19.0667 92.7381 22C95.8848 24.88 97.4581 28.7733 97.4581 33.68V58C97.4581 58.5333 97.2715 59.0133 96.8981 59.44C96.5248 59.8133 96.0448 60 95.4581 60H86.1781C85.6448 60 85.1648 59.8133 84.7381 59.44C84.3648 59.0133 84.1781 58.5333 84.1781 58V55.2C83.0048 56.8533 81.3515 58.2133 79.2181 59.28C77.1381 60.2933 74.6581 60.8 71.7781 60.8ZM75.5381 51.68C77.9915 51.68 79.9648 50.88 81.4581 49.28C83.0048 47.68 83.7781 45.3333 83.7781 42.24V41.12L76.9781 42.32C72.1781 43.1733 69.7781 44.8533 69.7781 47.36C69.7781 48.6933 70.3381 49.76 71.4581 50.56C72.5781 51.3067 73.9381 51.68 75.5381 51.68ZM127.453 60C116.413 60 110.893 54.7467 110.893 44.24V28.88H104.653C104.066 28.88 103.56 28.6933 103.133 28.32C102.76 27.9467 102.573 27.4667 102.573 26.88V20.4C102.573 19.8133 102.76 19.3333 103.133 18.96C103.56 18.5867 104.066 18.4 104.653 18.4H110.893V5.2C110.893 4.61333 111.08 4.13333 111.453 3.76C111.88 3.38666 112.36 3.2 112.893 3.2H122.173C122.76 3.2 123.24 3.38666 123.613 3.76C123.986 4.13333 124.173 4.61333 124.173 5.2V18.4H134.173C134.76 18.4 135.24 18.5867 135.613 18.96C136.04 19.3333 136.253 19.8133 136.253 20.4V26.88C136.253 27.4667 136.04 27.9467 135.613 28.32C135.24 28.6933 134.76 28.88 134.173 28.88H124.173V43.12C124.173 47.0667 125.693 49.04 128.733 49.04H134.893C135.48 49.04 135.96 49.2267 136.333 49.6C136.706 49.9733 136.893 50.4533 136.893 51.04V58C136.893 58.5333 136.706 59.0133 136.333 59.44C135.96 59.8133 135.48 60 134.893 60H127.453ZM162.717 60.8C156.317 60.8 151.277 59.0667 147.597 55.6C143.917 52.1333 141.997 47.0933 141.837 40.48V37.68C142.05 31.3867 143.997 26.48 147.677 22.96C151.41 19.3867 156.397 17.6 162.637 17.6C167.17 17.6 170.984 18.5333 174.077 20.4C177.224 22.2133 179.57 24.72 181.117 27.92C182.717 31.12 183.517 34.8 183.517 38.96V40.88C183.517 41.4133 183.33 41.8933 182.957 42.32C182.584 42.6933 182.104 42.88 181.517 42.88H155.917V43.44C156.024 45.9467 156.637 47.9733 157.757 49.52C158.877 51.0667 160.504 51.84 162.637 51.84C163.97 51.84 165.064 51.5733 165.917 51.04C166.77 50.4533 167.544 49.76 168.237 48.96C168.717 48.3733 169.09 48.0267 169.357 47.92C169.677 47.76 170.157 47.68 170.797 47.68H180.717C181.197 47.68 181.597 47.84 181.917 48.16C182.29 48.4267 182.477 48.8 182.477 49.28C182.477 50.6667 181.677 52.2667 180.077 54.08C178.53 55.8933 176.264 57.4667 173.277 58.8C170.29 60.1333 166.77 60.8 162.717 60.8ZM169.437 34.96V34.8C169.437 32.1867 168.824 30.1333 167.597 28.64C166.424 27.0933 164.77 26.32 162.637 26.32C160.557 26.32 158.904 27.0933 157.677 28.64C156.504 30.1333 155.917 32.1867 155.917 34.8V34.96H169.437ZM201.367 60C200.62 60 200.034 59.84 199.607 59.52C199.234 59.1467 198.94 58.64 198.727 58L187.207 20.96L187.047 20.16C187.047 19.68 187.234 19.28 187.607 18.96C187.98 18.5867 188.407 18.4 188.887 18.4H197.127C197.767 18.4 198.3 18.5867 198.727 18.96C199.154 19.28 199.42 19.6533 199.527 20.08L206.247 42.96L213.447 20.16C213.554 19.7333 213.82 19.3333 214.247 18.96C214.674 18.5867 215.234 18.4 215.927 18.4H221.207C221.9 18.4 222.46 18.5867 222.887 18.96C223.314 19.3333 223.58 19.7333 223.687 20.16L230.887 42.96L237.607 20.08C237.714 19.6533 237.98 19.28 238.407 18.96C238.834 18.5867 239.367 18.4 240.007 18.4H248.247C248.727 18.4 249.154 18.5867 249.527 18.96C249.9 19.28 250.087 19.68 250.087 20.16L249.927 20.96L238.407 58C238.194 58.64 237.874 59.1467 237.447 59.52C237.074 59.84 236.514 60 235.767 60H228.567C227.18 60 226.3 59.3333 225.927 58L218.567 36.08L211.207 58C210.834 59.3333 209.954 60 208.567 60H201.367ZM267.872 60.8C265.045 60.8 262.459 60.2667 260.112 59.2C257.819 58.08 256.005 56.5867 254.672 54.72C253.392 52.8 252.752 50.6933 252.752 48.4C252.752 44.72 254.245 41.76 257.232 39.52C260.272 37.28 264.432 35.7333 269.712 34.88L279.712 33.36V32.24C279.712 30.2133 279.285 28.72 278.432 27.76C277.579 26.8 276.139 26.32 274.112 26.32C272.885 26.32 271.872 26.5333 271.072 26.96C270.272 27.3867 269.445 27.9733 268.592 28.72C267.845 29.36 267.285 29.7867 266.912 30C266.752 30.4267 266.459 30.64 266.032 30.64H257.312C256.779 30.64 256.325 30.48 255.952 30.16C255.632 29.7867 255.499 29.36 255.552 28.88C255.605 27.44 256.299 25.84 257.632 24.08C259.019 22.32 261.099 20.8 263.872 19.52C266.699 18.24 270.165 17.6 274.272 17.6C280.832 17.6 285.685 19.0667 288.832 22C291.979 24.88 293.552 28.7733 293.552 33.68V58C293.552 58.5333 293.365 59.0133 292.992 59.44C292.619 59.8133 292.139 60 291.552 60H282.272C281.739 60 281.259 59.8133 280.832 59.44C280.459 59.0133 280.272 58.5333 280.272 58V55.2C279.099 56.8533 277.445 58.2133 275.312 59.28C273.232 60.2933 270.752 60.8 267.872 60.8ZM271.632 51.68C274.085 51.68 276.059 50.88 277.552 49.28C279.099 47.68 279.872 45.3333 279.872 42.24V41.12L273.072 42.32C268.272 43.1733 265.872 44.8533 265.872 47.36C265.872 48.6933 266.432 49.76 267.552 50.56C268.672 51.3067 270.032 51.68 271.632 51.68ZM309.011 75.2C308.531 75.2 308.131 75.04 307.811 74.72C307.491 74.4 307.331 74 307.331 73.52C307.331 73.1467 307.411 72.8 307.571 72.48L313.811 57.44L298.451 21.12C298.291 20.6933 298.211 20.3733 298.211 20.16C298.318 19.68 298.531 19.28 298.851 18.96C299.171 18.5867 299.571 18.4 300.051 18.4H309.171C310.291 18.4 311.065 18.96 311.491 20.08L320.611 43.36L329.971 20.08C330.505 18.96 331.305 18.4 332.371 18.4H341.331C341.811 18.4 342.211 18.5867 342.531 18.96C342.905 19.28 343.091 19.6533 343.091 20.08C343.091 20.2933 343.011 20.64 342.851 21.12L320.211 73.52C319.785 74.64 318.985 75.2 317.811 75.2H309.011ZM369.378 60C368.844 60 368.364 59.8133 367.938 59.44C367.564 59.0133 367.378 58.5333 367.378 58V28.88H361.298C360.711 28.88 360.231 28.6933 359.858 28.32C359.484 27.9467 359.298 27.4667 359.298 26.88V20.4C359.298 19.8133 359.484 19.3333 359.858 18.96C360.231 18.5867 360.711 18.4 361.298 18.4H367.378V15.84C367.378 10.56 368.871 6.74666 371.858 4.4C374.898 2 379.244 0.799999 384.898 0.799999H391.138C391.724 0.799999 392.204 0.986665 392.578 1.36C392.951 1.73333 393.138 2.21333 393.138 2.8V9.28C393.138 9.81333 392.951 10.2933 392.578 10.72C392.204 11.0933 391.724 11.28 391.138 11.28H385.538C383.778 11.28 382.524 11.7067 381.778 12.56C381.031 13.36 380.658 14.5867 380.658 16.24V18.4H390.338C390.924 18.4 391.404 18.5867 391.778 18.96C392.151 19.3333 392.338 19.8133 392.338 20.4V26.88C392.338 27.4133 392.151 27.8933 391.778 28.32C391.404 28.6933 390.924 28.88 390.338 28.88H380.658V58C380.658 58.5333 380.471 59.0133 380.098 59.44C379.724 59.8133 379.244 60 378.658 60H369.378ZM417.259 60.8C410.646 60.8 405.553 59.2267 401.979 56.08C398.406 52.9333 396.459 48.5067 396.139 42.8C396.086 42.1067 396.059 40.9067 396.059 39.2C396.059 37.4933 396.086 36.2933 396.139 35.6C396.459 29.9467 398.459 25.5467 402.139 22.4C405.819 19.2 410.859 17.6 417.259 17.6C423.713 17.6 428.779 19.2 432.459 22.4C436.139 25.5467 438.139 29.9467 438.459 35.6C438.513 36.2933 438.539 37.4933 438.539 39.2C438.539 40.9067 438.513 42.1067 438.459 42.8C438.139 48.5067 436.193 52.9333 432.619 56.08C429.046 59.2267 423.926 60.8 417.259 60.8ZM417.259 51.04C419.606 51.04 421.339 50.3467 422.459 48.96C423.579 47.52 424.219 45.3333 424.379 42.4C424.433 41.8667 424.459 40.8 424.459 39.2C424.459 37.6 424.433 36.5333 424.379 36C424.219 33.12 423.553 30.96 422.379 29.52C421.259 28.08 419.553 27.36 417.259 27.36C412.833 27.36 410.486 30.24 410.219 36L410.139 39.2L410.219 42.4C410.326 45.3333 410.939 47.52 412.059 48.96C413.233 50.3467 414.966 51.04 417.259 51.04ZM448.486 60C447.899 60 447.419 59.8133 447.046 59.44C446.672 59.0667 446.486 58.5867 446.486 58V20.4C446.486 19.8133 446.672 19.3333 447.046 18.96C447.419 18.5867 447.899 18.4 448.486 18.4H457.686C458.272 18.4 458.752 18.6133 459.126 19.04C459.552 19.4133 459.766 19.8667 459.766 20.4V23.6C462.699 20.1333 466.646 18.4 471.606 18.4H475.126C475.712 18.4 476.192 18.5867 476.566 18.96C476.939 19.3333 477.126 19.8133 477.126 20.4V28.64C477.126 29.1733 476.939 29.6533 476.566 30.08C476.192 30.4533 475.712 30.64 475.126 30.64H467.366C465.179 30.64 463.472 31.2533 462.246 32.48C461.072 33.6533 460.486 35.3333 460.486 37.52V58C460.486 58.5867 460.272 59.0667 459.846 59.44C459.472 59.8133 458.992 60 458.406 60H448.486ZM501.163 60C500.629 60 500.149 59.8133 499.723 59.44C499.349 59.0133 499.163 58.5333 499.163 58V6C499.163 5.41333 499.349 4.93333 499.723 4.56C500.149 4.18666 500.629 4 501.163 4H521.963C529.803 4 535.883 5.86666 540.203 9.6C544.523 13.3333 546.789 18.7467 547.003 25.84C547.056 27.3867 547.083 29.44 547.083 32C547.083 34.56 547.056 36.5867 547.003 38.08C546.736 45.4933 544.523 51.0133 540.363 54.64C536.256 58.2133 530.256 60 522.363 60H501.163ZM521.963 48.48C525.483 48.48 528.069 47.6533 529.723 46C531.376 44.2933 532.256 41.6 532.363 37.92C532.469 36.3733 532.523 34.3733 532.523 31.92C532.523 29.4667 532.469 27.4933 532.363 26C532.256 22.4267 531.296 19.7867 529.483 18.08C527.723 16.3733 525.083 15.52 521.563 15.52H513.562V48.48H521.963ZM574.748 60.8C568.348 60.8 563.308 59.0667 559.628 55.6C555.948 52.1333 554.028 47.0933 553.868 40.48V37.68C554.081 31.3867 556.028 26.48 559.708 22.96C563.441 19.3867 568.428 17.6 574.668 17.6C579.201 17.6 583.015 18.5333 586.108 20.4C589.255 22.2133 591.601 24.72 593.148 27.92C594.748 31.12 595.548 34.8 595.548 38.96V40.88C595.548 41.4133 595.361 41.8933 594.988 42.32C594.615 42.6933 594.135 42.88 593.548 42.88H567.948V43.44C568.055 45.9467 568.668 47.9733 569.788 49.52C570.908 51.0667 572.535 51.84 574.668 51.84C576.001 51.84 577.095 51.5733 577.948 51.04C578.801 50.4533 579.575 49.76 580.268 48.96C580.748 48.3733 581.121 48.0267 581.388 47.92C581.708 47.76 582.188 47.68 582.828 47.68H592.748C593.228 47.68 593.628 47.84 593.948 48.16C594.321 48.4267 594.508 48.8 594.508 49.28C594.508 50.6667 593.708 52.2667 592.108 54.08C590.561 55.8933 588.295 57.4667 585.308 58.8C582.321 60.1333 578.801 60.8 574.748 60.8ZM581.468 34.96V34.8C581.468 32.1867 580.855 30.1333 579.628 28.64C578.455 27.0933 576.801 26.32 574.668 26.32C572.588 26.32 570.935 27.0933 569.708 28.64C568.535 30.1333 567.948 32.1867 567.948 34.8V34.96H581.468ZM605.928 60C605.395 60 604.915 59.8133 604.488 59.44C604.115 59.0133 603.928 58.5333 603.928 58V6C603.928 5.41333 604.115 4.93333 604.488 4.56C604.915 4.18666 605.395 4 605.928 4H642.728C643.315 4 643.795 4.18666 644.168 4.56C644.541 4.93333 644.728 5.41333 644.728 6V14.08C644.728 14.6133 644.541 15.0933 644.168 15.52C643.795 15.8933 643.315 16.08 642.728 16.08H618.008V27.84H641.128C641.715 27.84 642.195 28.0533 642.568 28.48C642.941 28.8533 643.128 29.3333 643.128 29.92V37.92C643.128 38.4533 642.941 38.9333 642.568 39.36C642.195 39.7333 641.715 39.92 641.128 39.92H618.008V58C618.008 58.5867 617.821 59.0667 617.448 59.44C617.075 59.8133 616.595 60 616.008 60H605.928ZM654.421 12.4C653.835 12.4 653.355 12.2133 652.981 11.84C652.608 11.4667 652.421 10.9867 652.421 10.4V3.2C652.421 2.61333 652.608 2.13333 652.981 1.76C653.355 1.38666 653.835 1.2 654.421 1.2H664.021C664.608 1.2 665.088 1.38666 665.461 1.76C665.835 2.13333 666.021 2.61333 666.021 3.2V10.4C666.021 10.9867 665.835 11.4667 665.461 11.84C665.088 12.2133 664.608 12.4 664.021 12.4H654.421ZM654.501 60C653.915 60 653.435 59.8133 653.061 59.44C652.688 59.0667 652.501 58.5867 652.501 58V20.4C652.501 19.8133 652.688 19.3333 653.061 18.96C653.435 18.5867 653.915 18.4 654.501 18.4H663.941C664.528 18.4 665.008 18.5867 665.381 18.96C665.755 19.3333 665.941 19.8133 665.941 20.4V58C665.941 58.5333 665.755 59.0133 665.381 59.44C665.008 59.8133 664.528 60 663.941 60H654.501Z" fill="white"/>
</g>
<defs>
<filter id="filter0_i_517_9390" x="0.76001" y="0.800049" width="665.261" height="78.3999" filterUnits="userSpaceOnUse" color-interpolation-filters="sRGB">
<feFlood flood-opacity="0" result="BackgroundImageFix"/>
<feBlend mode="normal" in="SourceGraphic" in2="BackgroundImageFix" result="shape"/>
<feColorMatrix in="SourceAlpha" type="matrix" values="0 0 0 0 0 0 0 0 0 0 0 0 0 0 0 0 0 0 127 0" result="hardAlpha"/>
<feOffset dy="4"/>
<feGaussianBlur stdDeviation="2"/>
<feComposite in2="hardAlpha" operator="arithmetic" k2="-1" k3="1"/>
<feColorMatrix type="matrix" values="0 0 0 0 0 0 0 0 0 0 0 0 0 0 0 0 0 0 0.25 0"/>
<feBlend mode="normal" in2="shape" result="effect1_innerShadow_517_9390"/>
</filter>
</defs>
</svg>
