<svg width="239" height="36" viewBox="0 0 239 36" fill="none" xmlns="http://www.w3.org/2000/svg">
<g filter="url(#filter0_i_1008_3528)">
<path d="M1.56 35C1.208 35 0.92 34.888 0.696 34.664C0.472 34.44 0.36 34.152 0.36 33.8V2.6C0.36 2.248 0.472 1.96 0.696 1.736C0.92 1.512 1.208 1.4 1.56 1.4H14.616C18.744 1.4 21.992 2.36 24.36 4.28C26.76 6.168 27.96 8.856 27.96 12.344C27.96 14.616 27.4 16.536 26.28 18.104C25.192 19.672 23.752 20.856 21.96 21.656L28.584 33.464C28.68 33.656 28.728 33.832 28.728 33.992C28.728 34.248 28.616 34.488 28.392 34.712C28.2 34.904 27.96 35 27.672 35H21.336C20.728 35 20.28 34.856 19.992 34.568C19.704 34.248 19.496 33.96 19.368 33.704L13.896 23.144H8.952V33.8C8.952 34.152 8.84 34.44 8.616 34.664C8.392 34.888 8.104 35 7.752 35H1.56ZM8.952 16.376H14.52C16.024 16.376 17.144 16.008 17.88 15.272C18.648 14.536 19.032 13.528 19.032 12.248C19.032 11 18.664 9.992 17.928 9.224C17.224 8.456 16.088 8.072 14.52 8.072H8.952V16.376ZM47.1349 35.48C44.1909 35.48 41.6309 35 39.4549 34.04C37.2789 33.08 35.5829 31.64 34.3669 29.72C33.1509 27.768 32.4789 25.336 32.3509 22.424C32.3189 21.048 32.3029 19.672 32.3029 18.296C32.3029 16.92 32.3189 15.528 32.3509 14.12C32.4789 11.24 33.1509 8.824 34.3669 6.872C35.6149 4.888 37.3269 3.4 39.5029 2.408C41.6789 1.416 44.2229 0.919998 47.1349 0.919998C50.0149 0.919998 52.5429 1.416 54.7189 2.408C56.9269 3.4 58.6549 4.888 59.9029 6.872C61.1509 8.824 61.8229 11.24 61.9189 14.12C61.9829 15.528 62.0149 16.92 62.0149 18.296C62.0149 19.672 61.9829 21.048 61.9189 22.424C61.7909 25.336 61.1189 27.768 59.9029 29.72C58.6869 31.64 56.9909 33.08 54.8149 34.04C52.6389 35 50.0789 35.48 47.1349 35.48ZM47.1349 28.568C48.8309 28.568 50.2069 28.056 51.2629 27.032C52.3509 26.008 52.9269 24.376 52.9909 22.136C53.0549 20.728 53.0869 19.4 53.0869 18.152C53.0869 16.904 53.0549 15.608 52.9909 14.264C52.9269 12.76 52.6389 11.544 52.1269 10.616C51.6469 9.656 50.9749 8.952 50.1109 8.504C49.2469 8.056 48.2549 7.832 47.1349 7.832C46.0469 7.832 45.0709 8.056 44.2069 8.504C43.3429 8.952 42.6549 9.656 42.1429 10.616C41.6309 11.544 41.3429 12.76 41.2789 14.264C41.2469 15.608 41.2309 16.904 41.2309 18.152C41.2309 19.4 41.2469 20.728 41.2789 22.136C41.3749 24.376 41.9509 26.008 43.0069 27.032C44.0629 28.056 45.4389 28.568 47.1349 28.568ZM65.6588 35C65.4028 35 65.1628 34.904 64.9388 34.712C64.7468 34.488 64.6508 34.248 64.6508 33.992C64.6508 33.832 64.6668 33.688 64.6988 33.56L75.9788 2.744C76.0748 2.392 76.2668 2.088 76.5547 1.832C76.8748 1.544 77.3068 1.4 77.8508 1.4H84.9548C85.4988 1.4 85.9148 1.544 86.2028 1.832C86.5228 2.088 86.7308 2.392 86.8268 2.744L98.0588 33.56C98.1228 33.688 98.1548 33.832 98.1548 33.992C98.1548 34.248 98.0428 34.488 97.8188 34.712C97.6268 34.904 97.3868 35 97.0988 35H91.1948C90.7148 35 90.3468 34.888 90.0908 34.664C89.8668 34.408 89.7228 34.184 89.6588 33.992L87.7868 29.096H74.9708L73.1468 33.992C73.0828 34.184 72.9388 34.408 72.7148 34.664C72.4908 34.888 72.1068 35 71.5628 35H65.6588ZM76.9388 22.184H85.8668L81.3548 9.512L76.9388 22.184ZM103.138 35C102.786 35 102.498 34.888 102.274 34.664C102.05 34.44 101.938 34.152 101.938 33.8V2.6C101.938 2.248 102.05 1.96 102.274 1.736C102.498 1.512 102.786 1.4 103.138 1.4H115.618C118.754 1.4 121.426 1.912 123.634 2.936C125.842 3.928 127.538 5.4 128.722 7.352C129.906 9.272 130.546 11.656 130.642 14.504C130.674 15.912 130.69 17.144 130.69 18.2C130.69 19.256 130.674 20.472 130.642 21.848C130.514 24.824 129.874 27.288 128.722 29.24C127.602 31.192 125.954 32.648 123.778 33.608C121.634 34.536 118.994 35 115.858 35H103.138ZM110.53 28.088H115.618C116.994 28.088 118.13 27.88 119.026 27.464C119.954 27.016 120.642 26.328 121.09 25.4C121.57 24.472 121.826 23.256 121.858 21.752C121.922 20.824 121.954 19.992 121.954 19.256C121.986 18.52 121.986 17.784 121.954 17.048C121.954 16.312 121.922 15.496 121.858 14.6C121.794 12.424 121.218 10.84 120.13 9.848C119.074 8.824 117.49 8.312 115.378 8.312H110.53V28.088ZM137.498 35C137.178 35 136.89 34.888 136.634 34.664C136.41 34.44 136.298 34.152 136.298 33.8V2.6C136.298 2.248 136.41 1.96 136.634 1.736C136.89 1.512 137.178 1.4 137.498 1.4H142.682C143.194 1.4 143.578 1.544 143.834 1.832C144.122 2.088 144.298 2.296 144.362 2.456L152.81 17.624L161.258 2.456C161.354 2.296 161.514 2.088 161.738 1.832C161.994 1.544 162.394 1.4 162.938 1.4H168.074C168.426 1.4 168.714 1.512 168.938 1.736C169.194 1.96 169.322 2.248 169.322 2.6V33.8C169.322 34.152 169.194 34.44 168.938 34.664C168.714 34.888 168.426 35 168.074 35H162.362C162.01 35 161.706 34.888 161.45 34.664C161.226 34.44 161.114 34.152 161.114 33.8V15.8L155.69 25.832C155.562 26.12 155.37 26.376 155.114 26.6C154.858 26.824 154.506 26.936 154.058 26.936H151.562C151.114 26.936 150.762 26.824 150.506 26.6C150.25 26.376 150.042 26.12 149.882 25.832L144.458 15.8V33.8C144.458 34.152 144.346 34.44 144.122 34.664C143.898 34.888 143.61 35 143.258 35H137.498ZM174.081 35C173.825 35 173.585 34.904 173.361 34.712C173.169 34.488 173.073 34.248 173.073 33.992C173.073 33.832 173.089 33.688 173.121 33.56L184.401 2.744C184.497 2.392 184.689 2.088 184.977 1.832C185.297 1.544 185.729 1.4 186.273 1.4H193.377C193.921 1.4 194.337 1.544 194.625 1.832C194.945 2.088 195.153 2.392 195.249 2.744L206.481 33.56C206.545 33.688 206.577 33.832 206.577 33.992C206.577 34.248 206.465 34.488 206.241 34.712C206.049 34.904 205.809 35 205.521 35H199.617C199.137 35 198.769 34.888 198.513 34.664C198.289 34.408 198.145 34.184 198.081 33.992L196.209 29.096H183.393L181.569 33.992C181.505 34.184 181.361 34.408 181.137 34.664C180.913 34.888 180.529 35 179.985 35H174.081ZM185.361 22.184H194.289L189.777 9.512L185.361 22.184ZM211.56 35C211.208 35 210.92 34.888 210.696 34.664C210.472 34.44 210.36 34.152 210.36 33.8V2.6C210.36 2.248 210.472 1.96 210.696 1.736C210.92 1.512 211.208 1.4 211.56 1.4H225C227.656 1.4 229.96 1.816 231.912 2.648C233.896 3.448 235.432 4.664 236.52 6.296C237.64 7.928 238.2 9.992 238.2 12.488C238.2 14.952 237.64 16.984 236.52 18.584C235.432 20.184 233.896 21.368 231.912 22.136C229.96 22.904 227.656 23.288 225 23.288H219.288V33.8C219.288 34.152 219.16 34.44 218.904 34.664C218.68 34.888 218.392 35 218.04 35H211.56ZM219.144 16.664H224.76C226.136 16.664 227.224 16.312 228.024 15.608C228.856 14.904 229.272 13.832 229.272 12.392C229.272 11.176 228.92 10.152 228.216 9.32C227.512 8.488 226.36 8.072 224.76 8.072H219.144V16.664Z" fill="white"/>
</g>
<defs>
<filter id="filter0_i_1008_3528" x="0.359985" y="0.919922" width="237.84" height="38.5601" filterUnits="userSpaceOnUse" color-interpolation-filters="sRGB">
<feFlood flood-opacity="0" result="BackgroundImageFix"/>
<feBlend mode="normal" in="SourceGraphic" in2="BackgroundImageFix" result="shape"/>
<feColorMatrix in="SourceAlpha" type="matrix" values="0 0 0 0 0 0 0 0 0 0 0 0 0 0 0 0 0 0 127 0" result="hardAlpha"/>
<feOffset dy="4"/>
<feGaussianBlur stdDeviation="2"/>
<feComposite in2="hardAlpha" operator="arithmetic" k2="-1" k3="1"/>
<feColorMatrix type="matrix" values="0 0 0 0 0 0 0 0 0 0 0 0 0 0 0 0 0 0 0.25 0"/>
<feBlend mode="normal" in2="shape" result="effect1_innerShadow_1008_3528"/>
</filter>
</defs>
</svg>
