<svg width="336" height="112" viewBox="0 0 336 112" fill="none" xmlns="http://www.w3.org/2000/svg">
<g filter="url(#filter0_i_1013_3855)">
<path d="M67.788 111.295C66.2627 111.295 65.071 110.866 64.213 110.008C63.4503 109.245 62.8307 108.578 62.354 108.006L57.492 101.571C53.774 102.81 49.5317 103.43 44.765 103.43C35.9943 103.43 28.3677 102 21.885 99.14C15.4977 96.28 10.445 91.99 6.727 86.27C3.10433 80.4547 1.15 73.2093 0.864 64.534C0.768667 60.4347 0.721 56.3353 0.721 52.236C0.721 48.1367 0.768667 43.9897 0.864 39.795C1.15 31.215 3.152 24.0173 6.87 18.202C10.588 12.2913 15.6883 7.85833 22.171 4.903C28.6537 1.94766 36.185 0.469995 44.765 0.469995C53.4403 0.469995 61.0193 1.94766 67.502 4.903C73.9847 7.85833 79.085 12.2913 82.803 18.202C86.521 24.0173 88.523 31.215 88.809 39.795C88.9997 43.9897 89.095 48.1367 89.095 52.236C89.095 56.3353 88.9997 60.4347 88.809 64.534C88.237 76.3553 84.805 85.5073 78.513 91.99L88.952 106.862C89.0473 106.957 89.1427 107.148 89.238 107.434C89.3333 107.72 89.381 108.006 89.381 108.292C89.4763 109.055 89.238 109.722 88.666 110.294C88.094 110.961 87.379 111.295 86.521 111.295H67.788ZM44.765 82.838C49.8177 82.838 53.917 81.3127 57.063 78.262C60.3043 75.2113 62.0203 70.3493 62.211 63.676C62.4017 59.4813 62.497 55.525 62.497 51.807C62.497 48.089 62.4017 44.228 62.211 40.224C62.1157 35.7433 61.3053 32.1207 59.78 29.356C58.2547 26.496 56.205 24.3987 53.631 23.064C51.057 21.7293 48.1017 21.062 44.765 21.062C41.5237 21.062 38.616 21.7293 36.042 23.064C33.468 24.3987 31.4183 26.496 29.893 29.356C28.3677 32.1207 27.5573 35.7433 27.462 40.224C27.3667 44.228 27.319 48.089 27.319 51.807C27.319 55.525 27.3667 59.4813 27.462 63.676C27.6527 70.3493 29.321 75.2113 32.467 78.262C35.7083 81.3127 39.8077 82.838 44.765 82.838ZM147.713 103.43C139.133 103.43 131.601 102.048 125.119 99.283C118.731 96.423 113.774 92.0853 110.247 86.27C106.719 80.3593 104.956 72.8757 104.956 63.819V5.475C104.956 4.42633 105.289 3.56833 105.957 2.901C106.624 2.23366 107.482 1.89999 108.531 1.89999H126.978C128.026 1.89999 128.884 2.23366 129.552 2.901C130.219 3.56833 130.553 4.42633 130.553 5.475V63.676C130.553 69.8727 132.03 74.544 134.986 77.69C138.036 80.7407 142.279 82.266 147.713 82.266C153.051 82.266 157.198 80.7407 160.154 77.69C163.204 74.544 164.73 69.8727 164.73 63.676V5.475C164.73 4.42633 165.063 3.56833 165.731 2.901C166.493 2.23366 167.351 1.89999 168.305 1.89999H186.895C187.848 1.89999 188.658 2.23366 189.326 2.901C190.088 3.56833 190.47 4.42633 190.47 5.475V63.819C190.47 72.8757 188.706 80.3593 185.179 86.27C181.651 92.0853 176.694 96.423 170.307 99.283C163.919 102.048 156.388 103.43 147.713 103.43ZM201.478 102C200.716 102 200.001 101.714 199.333 101.142C198.761 100.475 198.475 99.7597 198.475 98.997C198.475 98.5203 198.523 98.0913 198.618 97.71L232.223 5.90399C232.509 4.85533 233.081 3.94966 233.939 3.18699C234.893 2.32899 236.18 1.89999 237.8 1.89999H258.964C260.585 1.89999 261.824 2.32899 262.682 3.18699C263.636 3.94966 264.255 4.85533 264.541 5.90399L298.003 97.71C298.194 98.0913 298.289 98.5203 298.289 98.997C298.289 99.7597 297.956 100.475 297.288 101.142C296.716 101.714 296.001 102 295.143 102H277.554C276.124 102 275.028 101.666 274.265 100.999C273.598 100.236 273.169 99.569 272.978 98.997L267.401 84.411H229.22L223.786 98.997C223.596 99.569 223.167 100.236 222.499 100.999C221.832 101.666 220.688 102 219.067 102H201.478ZM235.083 63.819H261.681L248.239 26.067L235.083 63.819ZM313.136 102C312.087 102 311.229 101.666 310.562 100.999C309.894 100.332 309.561 99.4737 309.561 98.425V5.475C309.561 4.42633 309.894 3.56833 310.562 2.901C311.229 2.23366 312.087 1.89999 313.136 1.89999H332.298C333.346 1.89999 334.204 2.23366 334.872 2.901C335.539 3.56833 335.873 4.42633 335.873 5.475V98.425C335.873 99.4737 335.539 100.332 334.872 100.999C334.204 101.666 333.346 102 332.298 102H313.136Z" fill="#F4F7FD"/>
</g>
<defs>
<filter id="filter0_i_1013_3855" x="0.721008" y="0.470215" width="335.152" height="114.825" filterUnits="userSpaceOnUse" color-interpolation-filters="sRGB">
<feFlood flood-opacity="0" result="BackgroundImageFix"/>
<feBlend mode="normal" in="SourceGraphic" in2="BackgroundImageFix" result="shape"/>
<feColorMatrix in="SourceAlpha" type="matrix" values="0 0 0 0 0 0 0 0 0 0 0 0 0 0 0 0 0 0 127 0" result="hardAlpha"/>
<feOffset dy="4"/>
<feGaussianBlur stdDeviation="2"/>
<feComposite in2="hardAlpha" operator="arithmetic" k2="-1" k3="1"/>
<feColorMatrix type="matrix" values="0 0 0 0 0 0 0 0 0 0 0 0 0 0 0 0 0 0 0.25 0"/>
<feBlend mode="normal" in2="shape" result="effect1_innerShadow_1013_3855"/>
</filter>
</defs>
</svg>
