<svg width="344" height="57" viewBox="0 0 344 57" fill="none" xmlns="http://www.w3.org/2000/svg">
<g filter="url(#filter0_i_517_1288)">
<path d="M34.668 56.745C33.8893 56.745 33.281 56.526 32.843 56.088C32.4537 55.6987 32.1373 55.358 31.894 55.066L29.412 51.781C27.514 52.4137 25.3483 52.73 22.915 52.73C18.4377 52.73 14.5443 52 11.235 50.54C7.97433 49.08 5.395 46.89 3.497 43.97C1.64767 41.0013 0.65 37.3027 0.504 32.874C0.455333 30.7813 0.431 28.6887 0.431 26.596C0.431 24.5033 0.455333 22.3863 0.504 20.245C0.65 15.865 1.672 12.1907 3.57 9.222C5.468 6.20467 8.07167 3.94167 11.381 2.433C14.6903 0.924331 18.535 0.169997 22.915 0.169997C27.3437 0.169997 31.2127 0.924331 34.522 2.433C37.8313 3.94167 40.435 6.20467 42.333 9.222C44.231 12.1907 45.253 15.865 45.399 20.245C45.4963 22.3863 45.545 24.5033 45.545 26.596C45.545 28.6887 45.4963 30.7813 45.399 32.874C45.107 38.9087 43.355 43.5807 40.143 46.89L45.472 54.482C45.5207 54.5307 45.5693 54.628 45.618 54.774C45.6667 54.92 45.691 55.066 45.691 55.212C45.7397 55.6013 45.618 55.942 45.326 56.234C45.034 56.5747 44.669 56.745 44.231 56.745H34.668ZM22.915 42.218C25.4943 42.218 27.587 41.4393 29.193 39.882C30.8477 38.3247 31.7237 35.8427 31.821 32.436C31.9183 30.2947 31.967 28.275 31.967 26.377C31.967 24.479 31.9183 22.508 31.821 20.464C31.7723 18.1767 31.3587 16.3273 30.58 14.916C29.8013 13.456 28.755 12.3853 27.441 11.704C26.127 11.0227 24.6183 10.682 22.915 10.682C21.2603 10.682 19.776 11.0227 18.462 11.704C17.148 12.3853 16.1017 13.456 15.323 14.916C14.5443 16.3273 14.1307 18.1767 14.082 20.464C14.0333 22.508 14.009 24.479 14.009 26.377C14.009 28.275 14.0333 30.2947 14.082 32.436C14.1793 35.8427 15.031 38.3247 16.637 39.882C18.2917 41.4393 20.3843 42.218 22.915 42.218ZM75.4687 52.73C71.0887 52.73 67.2441 52.0243 63.9347 50.613C60.6741 49.153 58.1434 46.9387 56.3427 43.97C54.5421 40.9527 53.6417 37.1323 53.6417 32.509V2.725C53.6417 2.18966 53.8121 1.75166 54.1527 1.411C54.4934 1.07033 54.9314 0.899997 55.4667 0.899997H64.8837C65.4191 0.899997 65.8571 1.07033 66.1977 1.411C66.5384 1.75166 66.7087 2.18966 66.7087 2.725V32.436C66.7087 35.5993 67.4631 37.984 68.9717 39.59C70.5291 41.1473 72.6947 41.926 75.4687 41.926C78.1941 41.926 80.3111 41.1473 81.8197 39.59C83.3771 37.984 84.1557 35.5993 84.1557 32.436V2.725C84.1557 2.18966 84.3261 1.75166 84.6667 1.411C85.0561 1.07033 85.4941 0.899997 85.9807 0.899997H95.4707C95.9574 0.899997 96.3711 1.07033 96.7117 1.411C97.1011 1.75166 97.2957 2.18966 97.2957 2.725V32.509C97.2957 37.1323 96.3954 40.9527 94.5947 43.97C92.7941 46.9387 90.2634 49.153 87.0027 50.613C83.7421 52.0243 79.8974 52.73 75.4687 52.73ZM102.916 52C102.526 52 102.161 51.854 101.821 51.562C101.529 51.2213 101.383 50.8563 101.383 50.467C101.383 50.2237 101.407 50.0047 101.456 49.81L118.611 2.944C118.757 2.40866 119.049 1.94633 119.487 1.557C119.973 1.119 120.63 0.899997 121.458 0.899997H132.262C133.089 0.899997 133.722 1.119 134.16 1.557C134.646 1.94633 134.963 2.40866 135.109 2.944L152.191 49.81C152.288 50.0047 152.337 50.2237 152.337 50.467C152.337 50.8563 152.166 51.2213 151.826 51.562C151.534 51.854 151.169 52 150.731 52H141.752C141.022 52 140.462 51.8297 140.073 51.489C139.732 51.0997 139.513 50.759 139.416 50.467L136.569 43.021H117.078L114.304 50.467C114.206 50.759 113.987 51.0997 113.647 51.489C113.306 51.8297 112.722 52 111.895 52H102.916ZM120.071 32.509H133.649L126.787 13.237L120.071 32.509ZM159.915 52C159.38 52 158.942 51.8297 158.601 51.489C158.261 51.1483 158.09 50.7103 158.09 50.175V2.725C158.09 2.18966 158.261 1.75166 158.601 1.411C158.942 1.07033 159.38 0.899997 159.915 0.899997H169.697C170.233 0.899997 170.671 1.07033 171.011 1.411C171.352 1.75166 171.522 2.18966 171.522 2.725V50.175C171.522 50.7103 171.352 51.1483 171.011 51.489C170.671 51.8297 170.233 52 169.697 52H159.915ZM199.124 52C198.589 52 198.151 51.8297 197.81 51.489C197.47 51.1483 197.299 50.7103 197.299 50.175V2.725C197.299 2.18966 197.47 1.75166 197.81 1.411C198.151 1.07033 198.589 0.899997 199.124 0.899997H218.104C222.874 0.899997 226.937 1.67866 230.295 3.236C233.653 4.74466 236.233 6.98333 238.033 9.952C239.834 12.872 240.807 16.4977 240.953 20.829C241.002 22.9703 241.026 24.844 241.026 26.45C241.026 28.056 241.002 29.9053 240.953 31.998C240.759 36.524 239.785 40.2713 238.033 43.24C236.33 46.2087 233.824 48.423 230.514 49.883C227.254 51.2943 223.239 52 218.469 52H199.124ZM210.366 41.488H218.104C220.197 41.488 221.925 41.1717 223.287 40.539C224.699 39.8577 225.745 38.8113 226.426 37.4C227.156 35.9887 227.546 34.1393 227.594 31.852C227.692 30.4407 227.74 29.1753 227.74 28.056C227.789 26.9367 227.789 25.8173 227.74 24.698C227.74 23.5787 227.692 22.3377 227.594 20.975C227.497 17.6657 226.621 15.2567 224.966 13.748C223.36 12.1907 220.951 11.412 217.739 11.412H210.366V41.488ZM245.565 52C245.176 52 244.811 51.854 244.47 51.562C244.178 51.2213 244.032 50.8563 244.032 50.467C244.032 50.2237 244.056 50.0047 244.105 49.81L261.26 2.944C261.406 2.40866 261.698 1.94633 262.136 1.557C262.623 1.119 263.28 0.899997 264.107 0.899997H274.911C275.738 0.899997 276.371 1.119 276.809 1.557C277.296 1.94633 277.612 2.40866 277.758 2.944L294.84 49.81C294.937 50.0047 294.986 50.2237 294.986 50.467C294.986 50.8563 294.816 51.2213 294.475 51.562C294.183 51.854 293.818 52 293.38 52H284.401C283.671 52 283.111 51.8297 282.722 51.489C282.381 51.0997 282.162 50.759 282.065 50.467L279.218 43.021H259.727L256.953 50.467C256.856 50.759 256.637 51.0997 256.296 51.489C255.955 51.8297 255.371 52 254.544 52H245.565ZM262.72 32.509H276.298L269.436 13.237L262.72 32.509ZM320.549 52.73C316.071 52.73 312.178 52 308.869 50.54C305.559 49.08 302.98 46.89 301.131 43.97C299.281 41.0013 298.259 37.3027 298.065 32.874C298.016 30.7813 297.992 28.6887 297.992 26.596C297.992 24.5033 298.016 22.3863 298.065 20.245C298.259 15.865 299.281 12.1907 301.131 9.222C303.029 6.20467 305.632 3.94167 308.942 2.433C312.251 0.924331 316.12 0.169997 320.549 0.169997C324.929 0.169997 328.773 0.924331 332.083 2.433C335.441 3.94167 338.069 6.20467 339.967 9.222C341.865 12.1907 342.887 15.865 343.033 20.245C343.13 22.3863 343.179 24.5033 343.179 26.596C343.179 28.6887 343.13 30.7813 343.033 32.874C342.838 37.3027 341.816 41.0013 339.967 43.97C338.117 46.89 335.538 49.08 332.229 50.54C328.919 52 325.026 52.73 320.549 52.73ZM320.549 42.218C323.128 42.218 325.221 41.4393 326.827 39.882C328.481 38.3247 329.357 35.8427 329.455 32.436C329.552 30.2947 329.601 28.275 329.601 26.377C329.601 24.479 329.552 22.508 329.455 20.464C329.357 18.1767 328.919 16.3273 328.141 14.916C327.411 13.456 326.389 12.3853 325.075 11.704C323.761 11.0227 322.252 10.682 320.549 10.682C318.894 10.682 317.41 11.0227 316.096 11.704C314.782 12.3853 313.735 13.456 312.957 14.916C312.178 16.3273 311.74 18.1767 311.643 20.464C311.594 22.508 311.57 24.479 311.57 26.377C311.57 28.275 311.594 30.2947 311.643 32.436C311.789 35.8427 312.665 38.3247 314.271 39.882C315.877 41.4393 317.969 42.218 320.549 42.218Z" fill="#F4F7FD"/>
</g>
<defs>
<filter id="filter0_i_517_1288" x="0.431" y="0.169998" width="342.748" height="60.575" filterUnits="userSpaceOnUse" color-interpolation-filters="sRGB">
<feFlood flood-opacity="0" result="BackgroundImageFix"/>
<feBlend mode="normal" in="SourceGraphic" in2="BackgroundImageFix" result="shape"/>
<feColorMatrix in="SourceAlpha" type="matrix" values="0 0 0 0 0 0 0 0 0 0 0 0 0 0 0 0 0 0 127 0" result="hardAlpha"/>
<feOffset dy="4"/>
<feGaussianBlur stdDeviation="2"/>
<feComposite in2="hardAlpha" operator="arithmetic" k2="-1" k3="1"/>
<feColorMatrix type="matrix" values="0 0 0 0 0 0 0 0 0 0 0 0 0 0 0 0 0 0 0.25 0"/>
<feBlend mode="normal" in2="shape" result="effect1_innerShadow_517_1288"/>
</filter>
</defs>
</svg>
