<svg width="106" height="18" viewBox="0 0 106 18" fill="none" xmlns="http://www.w3.org/2000/svg">
<path d="M5.87246 17.5555C5.48804 17.5555 5.16168 17.3247 5.10495 17.0121L3.19819 6.52081L3.08206 5.78056H2.90787V16.9184C2.90787 17.2704 2.56015 17.5561 2.13168 17.5561H0.776188C0.347716 17.5555 0 17.2698 0 16.9178V0.960685C0 0.429895 0.523243 0 1.16929 0H2.86983C3.43111 0 3.91364 0.327905 4.01842 0.780831L5.69761 8.02545L5.8431 8.95707H5.90116L6.04666 8.02545L7.72584 0.780831C7.83129 0.327905 8.31382 0 8.8751 0H10.5756C11.2217 0 11.7449 0.429895 11.7449 0.960685V16.9178C11.7449 17.2698 11.3972 17.5555 10.9687 17.5555H9.61325C9.18478 17.5555 8.83706 17.2698 8.83706 16.9178V5.78001H8.66287L8.54674 6.52026L6.63998 17.0121C6.58325 17.3247 6.25689 17.5555 5.87246 17.5555Z" fill="#0075FF"/>
<path d="M21.4252 13.8376V14.3815C21.3378 15.6476 20.8726 16.531 19.8261 17.2236C19.3029 17.5816 18.5761 17.7489 17.617 17.7489C15.7276 17.7489 14.7679 16.8891 14.3027 16.0293C14.0411 15.5275 13.8669 14.9545 13.8375 14.3097V7.74117C13.925 6.47506 14.4188 5.54398 15.4653 4.82731C15.9599 4.46924 16.686 4.302 17.6457 4.302C19.5351 4.302 20.4949 5.16179 20.96 5.99801C21.2217 6.49973 21.3958 7.04917 21.4252 7.66989V10.507C21.4252 11.0378 20.902 11.4677 20.2559 11.4677H16.5705V14.3102C16.5999 14.812 16.7741 15.17 17.0357 15.4327C17.1812 15.5522 17.3848 15.6235 17.6464 15.6235C18.199 15.6235 18.4606 15.3367 18.5767 14.9787C18.6642 14.7873 18.6929 14.5723 18.6929 14.3097V13.8376C18.6929 13.3068 19.2161 12.8769 19.8622 12.8769H20.2559C20.9013 12.8763 21.4252 13.3068 21.4252 13.8376ZM16.5699 9.58029H18.6922V7.74117C18.6922 7.23944 18.5761 6.88138 18.2851 6.5946C18.1396 6.47506 17.9073 6.40378 17.6457 6.40378C17.0931 6.40378 16.8609 6.71413 16.7154 7.07275C16.6279 7.26412 16.5992 7.47906 16.5699 7.74172V9.58029V9.58029Z" fill="#0075FF"/>
<path d="M23.4313 16.5956V0.961417C23.4313 0.430628 23.9545 0.000732422 24.6006 0.000732422H25.902C28.8092 0.000732422 30.3789 0.478333 31.2219 1.81572C32.0361 3.15312 32.1522 5.35085 32.1522 8.79001C32.1522 12.2292 32.0361 14.4028 31.2219 15.7407C30.3789 17.0781 28.8092 17.5557 25.902 17.5557H24.6006C23.9545 17.5563 23.4313 17.1264 23.4313 16.5956ZM26.5707 14.9769C27.6466 14.9769 28.2566 14.8815 28.5769 14.0217C28.7224 13.6159 28.8386 12.9947 28.8679 12.1584C28.8973 11.3222 28.8973 10.1998 28.8973 8.76698C28.8973 7.33363 28.8973 6.21119 28.8679 5.37552C28.8386 4.56344 28.7224 3.94272 28.5769 3.51228C28.2573 2.67606 27.6466 2.58065 26.5707 2.58065V14.9769Z" fill="#0075FF"/>
<path d="M35.4131 0.000732422H36.2139C36.86 0.000732422 37.3832 0.430628 37.3832 0.961418V16.5956C37.3832 17.1264 36.86 17.5563 36.2139 17.5563H35.4131C34.767 17.5563 34.2438 17.1264 34.2438 16.5956V0.961418C34.2438 0.430628 34.7677 0.000732422 35.4131 0.000732422Z" fill="#0075FF"/>
<path d="M39.0414 16.4519L41.9152 0.817753C42.0013 0.348377 42.4932 0.000732422 43.0712 0.000732422H44.8965C45.4752 0.000732422 45.9664 0.348377 46.0531 0.818301L48.927 16.4525C49.0338 17.0337 48.4858 17.5568 47.7704 17.5568H47.101C46.515 17.5568 46.0191 17.2004 45.9417 16.7228L45.4959 13.974H42.4725L42.0267 16.7228C41.9493 17.2004 41.4534 17.5568 40.8674 17.5568H40.198C39.4826 17.5563 38.9346 17.0331 39.0414 16.4519ZM44.1584 5.70946L44.071 5.25544H43.8968L43.8093 5.70946L42.9083 11.2509H45.0594L44.1584 5.70946Z" fill="#0075FF"/>
<path d="M105.193 11.0993C104.51 10.6436 103.602 10.7508 103.041 11.3547C101.364 13.1592 98.875 15.4299 94.2563 15.6727C88.3862 15.982 85.6789 12.3621 85.7908 11.4712C85.9026 10.5804 89.6665 8.46057 92.5607 8.5074C95.4548 8.55423 93.8619 13.3956 90.3838 11.6645C90.3838 11.6645 91.0132 14.4841 94.4405 14.2907C97.014 14.1459 98.6995 12.6534 99.4033 10.5641C99.8123 9.35032 99.1068 8.04129 97.8891 7.70696C96.3583 7.28659 94.6952 7.00997 92.945 6.99146C84.9145 6.90488 81.885 11.4435 81.885 11.4435C81.885 11.4435 84.8118 16.5892 93.7013 16.8358C99.1839 16.9878 103.03 15.3346 105.172 14.0446C106.245 13.3988 106.282 11.8301 105.241 11.1314C105.225 11.1211 105.209 11.1102 105.193 11.0993Z" fill="url(#paint0_linear_517_9424)"/>
<path d="M75.3498 11.0993C74.6668 10.6436 73.7595 10.7508 73.198 11.3547C71.5211 13.1592 69.0322 15.4299 64.4134 15.6727C58.5433 15.982 55.836 12.3621 55.9479 11.4712C56.0597 10.5804 59.8236 8.46057 62.7178 8.5074C65.6119 8.55423 64.019 13.3956 60.5409 11.6645C60.5409 11.6645 61.1703 14.4841 64.5976 14.2907C67.1711 14.1459 68.8566 12.6534 69.5604 10.5641C69.9694 9.35032 69.2639 8.04129 68.0462 7.70696C66.5154 7.28659 64.8524 7.00997 63.1021 6.99146C55.0717 6.90488 52.0421 11.4435 52.0421 11.4435C52.0421 11.4435 54.9689 16.5892 63.8584 16.8358C69.341 16.9878 73.1873 15.3346 75.3294 14.0446C76.4026 13.3988 76.439 11.8301 75.3979 11.1314C75.3824 11.1211 75.3658 11.1102 75.3498 11.0993Z" fill="url(#paint1_linear_517_9424)"/>
<path d="M103.223 0.0208016C88.5818 2.39398 81.4892 6.85586 78.9677 8.81819C76.4462 6.85586 69.3536 2.39398 54.7125 0.0208016C54.3824 -0.032811 54.0437 0.0229898 53.7462 0.179998C52.3697 0.907598 52.7527 3.01818 54.293 3.19379C60.8603 3.94109 71.8194 5.74203 77.436 9.77337V16.1407C77.436 17.0056 78.1218 17.7069 78.9677 17.7069C79.8135 17.7069 80.4994 17.0056 80.4994 16.1407V9.77337C86.116 5.74203 97.0756 3.94054 103.642 3.19379C105.183 3.01873 105.566 0.908145 104.189 0.179998C103.892 0.0229898 103.554 -0.032811 103.223 0.0208016Z" fill="url(#paint2_linear_517_9424)"/>
<defs>
<linearGradient id="paint0_linear_517_9424" x1="79.9569" y1="15.2681" x2="106.952" y2="14.6764" gradientUnits="userSpaceOnUse">
<stop stop-color="#48D1FE"/>
<stop offset="1" stop-color="#FDA4FF"/>
</linearGradient>
<linearGradient id="paint1_linear_517_9424" x1="51.7354" y1="12.0876" x2="77.5021" y2="12.0876" gradientUnits="userSpaceOnUse">
<stop stop-color="#7423FB"/>
<stop offset="0.919153" stop-color="#09DEFE"/>
</linearGradient>
<linearGradient id="paint2_linear_517_9424" x1="53.9493" y1="12.4628" x2="104.85" y2="10.9917" gradientUnits="userSpaceOnUse">
<stop stop-color="#6100FF" stop-opacity="0.85"/>
<stop offset="0.382867" stop-color="#08E0FE"/>
<stop offset="0.993948" stop-color="#FDA4FF"/>
</linearGradient>
</defs>
</svg>
