<svg width="144" height="146" viewBox="0 0 144 146" fill="none" xmlns="http://www.w3.org/2000/svg">
<mask id="mask0_915_3655" style="mask-type:alpha" maskUnits="userSpaceOnUse" x="72" y="-11" width="84" height="169">
<path d="M72.2618 -10.0858C83.242 -10.0858 94.1147 -7.91472 104.259 -3.69661C114.403 0.521497 123.621 6.70407 131.385 14.4981C139.149 22.2922 145.308 31.5451 149.51 41.7285C153.712 51.9119 155.875 62.8264 155.875 73.8489C155.875 84.8713 153.712 95.7858 149.51 105.969C145.308 116.153 139.149 125.406 131.385 133.2C123.621 140.994 114.403 147.176 104.259 151.394C94.1146 155.612 83.242 157.783 72.2617 157.783L72.2618 73.8488V-10.0858Z" fill="white"/>
</mask>
<g mask="url(#mask0_915_3655)">
<path fill-rule="evenodd" clip-rule="evenodd" d="M60.0133 29.3179C60.4169 28.2918 61.2954 27.522 62.3745 27.3133C68.1723 26.1918 74.1351 26.1924 79.9327 27.3152C81.0114 27.5242 81.8896 28.2939 82.2932 29.3197L85.0322 36.2826C85.367 37.1338 86.0366 37.8041 86.8669 38.1819C87.9951 38.6953 89.1044 39.2667 90.1905 39.8961C91.2772 40.526 92.3255 41.2052 93.3332 41.9298C94.0743 42.4629 94.9874 42.7098 95.8893 42.5753L103.261 41.4758C104.348 41.3137 105.451 41.6925 106.171 42.5262C110.039 47.0075 113.02 52.1938 114.95 57.7978C115.309 58.84 115.084 59.9881 114.401 60.8516L109.767 66.7095C109.201 67.4261 108.957 68.3433 109.046 69.254C109.167 70.4909 109.229 71.7403 109.229 72.9986C109.229 74.2577 109.167 75.508 109.046 76.7458C108.957 77.6566 109.2 78.5738 109.767 79.2905L114.398 85.1449C115.081 86.0086 115.306 87.157 114.947 88.1994C113.015 93.8047 110.031 98.9919 106.161 103.473C105.441 104.307 104.338 104.685 103.251 104.523L95.8857 103.424C94.984 103.29 94.071 103.537 93.3299 104.07C92.3233 104.794 91.2761 105.472 90.1905 106.101C89.1048 106.73 87.996 107.301 86.8683 107.815C86.038 108.193 85.3685 108.863 85.0337 109.714L82.2985 116.667C81.895 117.693 81.017 118.462 79.9384 118.671C74.1371 119.796 68.1703 119.796 62.3688 118.673C61.2899 118.465 60.4116 117.695 60.008 116.669L57.2724 109.715C56.9376 108.864 56.268 108.193 55.4377 107.816C54.3092 107.302 53.1998 106.731 52.1135 106.101C51.028 105.472 49.9809 104.794 48.9743 104.07C48.2332 103.537 47.3203 103.29 46.4186 103.425L39.0467 104.524C37.9601 104.686 36.8571 104.308 36.1375 103.475C32.2683 98.9951 29.285 93.8103 27.3529 88.2076C26.9934 87.1651 27.2183 86.0165 27.9017 85.1525L32.537 79.2925C33.1039 78.5757 33.3474 77.6584 33.2582 76.7476C33.1368 75.5092 33.075 74.2583 33.075 72.9986C33.075 71.7397 33.1367 70.4897 33.2579 69.2521C33.3471 68.3414 33.1036 67.4242 32.5367 66.7075L27.8987 60.844C27.2154 59.9802 26.9905 58.8319 27.3497 57.7896C29.28 52.1883 32.2609 47.0044 36.1272 42.525C36.8468 41.6913 37.9502 41.3126 39.0371 41.4747L46.415 42.5751C47.3168 42.7096 48.2299 42.4627 48.9711 41.9296C49.9786 41.205 51.0268 40.526 52.1135 39.8961C53.2002 39.2663 54.3101 38.6946 55.439 38.181C56.2694 37.8032 56.9391 37.1329 57.2739 36.2816L60.0133 29.3179ZM82.7343 52.8502C75.565 48.6951 66.7321 48.6951 59.5628 52.8502C52.3935 57.0053 47.977 64.6843 47.977 72.9945C47.977 81.3047 52.3935 88.9837 59.5628 93.1388C66.7321 97.2939 75.565 97.2939 82.7343 93.1388C89.9036 88.9837 94.32 81.3047 94.32 72.9945C94.32 64.6843 89.9036 57.0053 82.7343 52.8502Z" fill="#007BFF" fill-opacity="0.25" stroke="#007BFF" stroke-width="9" stroke-linecap="round" stroke-linejoin="round"/>
</g>
<path d="M70.7822 1L56.3878 37.6145C54.8065 38.2638 53.2584 39.0244 51.7548 39.8964C50.2513 40.7683 48.8215 41.7347 47.4711 42.7856L8.70606 37L33.0772 67.8294C32.8464 69.5291 32.7282 71.2555 32.7282 72.9988C32.7282 74.7429 32.8465 76.4699 33.0774 78.1702L8.70605 109L47.4736 103.214C48.8233 104.264 50.2522 105.23 51.7548 106.101C53.258 106.973 54.8058 107.734 56.3867 108.383L70.7822 145L85.1779 108.382C86.7582 107.733 88.3054 106.973 89.808 106.101C91.3107 105.23 92.7397 104.264 94.0895 103.214L132.858 109L108.486 78.1686C108.716 76.4688 108.835 74.7423 108.835 72.9988C108.835 71.256 108.716 69.5302 108.486 67.831L132.858 37L94.092 42.7858C92.7415 41.7348 91.3116 40.7684 89.808 39.8964C88.305 39.0247 86.7575 38.2644 85.1768 37.6153L70.7822 1Z" stroke="#007BFF" stroke-width="1.6875" stroke-linecap="round" stroke-linejoin="round" stroke-dasharray="2.25 5.62"/>
<path d="M70.7815 28.8622L108.835 50.9305V95.0671L70.7815 117.135L32.7283 95.0671V50.9305L70.7815 28.8622Z" stroke="#007BFF" stroke-width="1.6875" stroke-linecap="round" stroke-linejoin="round" stroke-dasharray="2.25 5.62"/>
<path d="M70.778 19.2757L117.092 46.1347V99.8529L70.778 126.712L24.4639 99.8529V46.1347L70.778 19.2757Z" stroke="#007BFF" stroke-width="1.6875" stroke-linecap="round" stroke-linejoin="round" stroke-dasharray="2.25 5.62"/>
<path d="M70.778 46.1347L93.9351 59.5643V86.4233L70.778 99.8529L47.621 86.4233V59.5643L70.778 46.1347Z" stroke="#007BFF" stroke-width="1.6875" stroke-linecap="round" stroke-linejoin="round" stroke-dasharray="2.25 5.62"/>
</svg>
